<?xml version="1.0" encoding="utf-8"?>
<!-- Generator: Adobe Illustrator 18.0.0, SVG Export Plug-In . SVG Version: 6.00 Build 0)  -->
<!DOCTYPE svg PUBLIC "-//W3C//DTD SVG 1.0//EN" "http://www.w3.org/TR/2001/REC-SVG-20010904/DTD/svg10.dtd">
<svg version="1.0" id="Layer_1" xmlns="http://www.w3.org/2000/svg" xmlns:xlink="http://www.w3.org/1999/xlink" x="0px" y="0px"
	 viewBox="0 0 50 63" enable-background="new 0 0 50 63" xml:space="preserve" width="200px" height="240px" fill="#fff">
<path id="head" d="M42.5,33.1c-0.1,1.8-2.1,3-3.7,2c-1-0.6-1.1-1.7-1.1-2.7l0-7.4c0-5.3-4.3-9.5-9.6-9.5H28h-5.2c0,1.8,0,3.6,0,5.5
	c0,1.4-0.1,2.8,0.5,4.1c1,2.3,3.3,3.7,5.8,3.7l0,0c1.2,0,2.6,0.4,3.5,1.2c1,0.8,1.4,1.9,1.5,3.1v0.1c0,0.7,0.1,1.3,0.4,2
	c1,2.7,3.7,4.3,6.5,3.9c3-0.4,5-3,5.1-5.9C46.3,30.8,42.6,30.8,42.5,33.1z"/>
<path d="M22.5,34.3l2.2,2.5l-0.8,0.8c-1.1,1.1-1.1,2.9,0,4c1.1,1.1,2.9,1.1,4,0l2.4-2.5c1.1-1.1,1.1-2.9,0-4l-1.4-1.4
	c-0.4-0.4-0.6-0.8-0.6-1.4c0-0.9,0.8-1.7,1.7-1.7c0.2,0,0.3,0,0.5,0.1c-0.6-0.3-1.3-0.4-2-0.4c0,0,0,0,0,0c-4.3,0-7.3-3.4-7.3-7.6
	c0-2.2,0-4.4,0-6.6h-7.5c-5.3,0-9.5,4.3-9.5,9.5v9.8l2.3-2.1v6.2c0,1.6,1.3,2.8,2.8,2.8c1.6,0,2.8-1.3,2.8-2.8v-4.4
	c0.1-1.2,1.1-2.2,2.3-2.2c1.3,0,2.3,1,2.4,2.2v4.4c0,1.6,1.3,2.8,2.8,2.8c1.6,0,2.8-1.3,2.8-2.8L22.5,34.3z"/>
</svg>
