<?xml version="1.0" encoding="UTF-8" standalone="no"?>
<svg width="28px" height="18px" viewBox="0 0 28 18" version="1.1" xmlns="http://www.w3.org/2000/svg" xmlns:xlink="http://www.w3.org/1999/xlink" xmlns:sketch="http://www.bohemiancoding.com/sketch/ns">
    <!-- Generator: Sketch 3.1.1 (8761) - http://www.bohemiancoding.com/sketch -->
    <title>elephant</title>
    <desc>Created with Sketch.</desc>
    <defs></defs>
    <g id="Page-1" stroke="none" stroke-width="1" fill="none" fill-rule="evenodd" sketch:type="MSPage">
        <g id="elephant" sketch:type="MSLayerGroup" fill="#FFFFFF">
            <path id="head" d="M24.75,11.3962963 C24.6857143,12.5296296 23.4,13.2851852 22.3714286,12.6555556 C21.7285714,12.2777778 21.6642857,11.5851852 21.6642857,10.9555556 L21.6642857,6.2962963 C21.6642857,2.95925926 18.9,0.314814815 15.4928571,0.314814815 L15.4285714,0.314814815 L12.0857143,0.314814815 L12.0857143,3.77777778 C12.0857143,4.65925926 12.0214286,5.54074074 12.4071429,6.35925926 C13.05,7.80740741 14.5285714,8.68888889 16.1357143,8.68888889 L16.1357143,8.68888889 C16.9071429,8.68888889 17.8071429,8.94074074 18.3857143,9.44444444 C19.0285714,9.94814815 19.2857143,10.6407407 19.35,11.3962963 L19.35,11.4592593 C19.35,11.9 19.4142857,12.2777778 19.6071429,12.7185185 C20.25,14.4185185 21.9857143,15.4259259 23.7857143,15.1740741 C25.7142857,14.9222222 27,13.2851852 27.0642857,11.4592593 C27.1928571,9.94814815 24.8142857,9.94814815 24.75,11.3962963 L24.75,11.3962963 Z" id="head" sketch:type="MSShapeGroup"></path>
            <path d="M11.8928571,12.1518519 L13.3071429,13.7259259 L12.7928571,14.2296296 C12.0857143,14.9222222 12.0857143,16.0555556 12.7928571,16.7481481 C13.5,17.4407407 14.6571429,17.4407407 15.3642857,16.7481481 L16.9071429,15.1740741 C17.6142857,14.4814815 17.6142857,13.3481481 16.9071429,12.6555556 L16.0071429,11.7740741 C15.75,11.5222222 15.6214286,11.2703704 15.6214286,10.8925926 C15.6214286,10.3259259 16.1357143,9.82222222 16.7142857,9.82222222 C16.8428571,9.82222222 16.9071429,9.82222222 17.0357143,9.88518519 C16.65,9.6962963 16.2,9.63333333 15.75,9.63333333 L15.75,9.63333333 C12.9857143,9.63333333 11.0571429,7.49259259 11.0571429,4.84814815 L11.0571429,0.692592593 L6.23571429,0.692592593 C2.82857143,0.692592593 0.128571429,3.4 0.128571429,6.67407407 L0.128571429,12.8444444 L1.60714286,11.5222222 L1.60714286,15.4259259 C1.60714286,16.4333333 2.44285714,17.1888889 3.40714286,17.1888889 C4.43571429,17.1888889 5.20714286,16.3703704 5.20714286,15.4259259 L5.20714286,12.6555556 C5.27142857,11.9 5.91428571,11.2703704 6.68571429,11.2703704 C7.52142857,11.2703704 8.16428571,11.9 8.22857143,12.6555556 L8.22857143,15.4259259 C8.22857143,16.4333333 9.06428571,17.1888889 10.0285714,17.1888889 C11.0571429,17.1888889 11.8285714,16.3703704 11.8285714,15.4259259 L11.8928571,12.1518519 L11.8928571,12.1518519 Z" id="Shape" sketch:type="MSShapeGroup"></path>
        </g>
    </g>
</svg>