<?xml version="1.0" encoding="UTF-8" standalone="no"?>
<svg width="140px" height="113px" viewBox="0 0 140 113" version="1.1" xmlns="http://www.w3.org/2000/svg" xmlns:xlink="http://www.w3.org/1999/xlink" xmlns:sketch="http://www.bohemiancoding.com/sketch/ns">
    <!-- Generator: Sketch 3.1.1 (8761) - http://www.bohemiancoding.com/sketch -->
    <title>Slice 2</title>
    <desc>Created with Sketch.</desc>
    <defs>
        <filter x="-50%" y="-50%" width="200%" height="200%" filterUnits="objectBoundingBox" id="filter-1">
            <feOffset dx="0" dy="2" in="SourceAlpha" result="shadowOffsetOuter1"></feOffset>
            <feGaussianBlur stdDeviation="2" in="shadowOffsetOuter1" result="shadowBlurOuter1"></feGaussianBlur>
            <feColorMatrix values="0 0 0 0 0   0 0 0 0 0   0 0 0 0 0  0 0 0 0.35 0" in="shadowBlurOuter1" type="matrix" result="shadowMatrixOuter1"></feColorMatrix>
            <feMerge>
                <feMergeNode in="shadowMatrixOuter1"></feMergeNode>
                <feMergeNode in="SourceGraphic"></feMergeNode>
            </feMerge>
        </filter>
        <filter x="-50%" y="-50%" width="200%" height="200%" filterUnits="objectBoundingBox" id="filter-2">
            <feOffset dx="0" dy="2" in="SourceAlpha" result="shadowOffsetOuter1"></feOffset>
            <feGaussianBlur stdDeviation="2" in="shadowOffsetOuter1" result="shadowBlurOuter1"></feGaussianBlur>
            <feColorMatrix values="0 0 0 0 0   0 0 0 0 0   0 0 0 0 0  0 0 0 0.35 0" in="shadowBlurOuter1" type="matrix" result="shadowMatrixOuter1"></feColorMatrix>
            <feMerge>
                <feMergeNode in="shadowMatrixOuter1"></feMergeNode>
                <feMergeNode in="SourceGraphic"></feMergeNode>
            </feMerge>
        </filter>
        <filter x="-50%" y="-50%" width="200%" height="200%" filterUnits="objectBoundingBox" id="filter-3">
            <feOffset dx="0" dy="2" in="SourceAlpha" result="shadowOffsetOuter1"></feOffset>
            <feGaussianBlur stdDeviation="2" in="shadowOffsetOuter1" result="shadowBlurOuter1"></feGaussianBlur>
            <feColorMatrix values="0 0 0 0 0   0 0 0 0 0   0 0 0 0 0  0 0 0 0.35 0" in="shadowBlurOuter1" type="matrix" result="shadowMatrixOuter1"></feColorMatrix>
            <feMerge>
                <feMergeNode in="shadowMatrixOuter1"></feMergeNode>
                <feMergeNode in="SourceGraphic"></feMergeNode>
            </feMerge>
        </filter>
        <filter x="-50%" y="-50%" width="200%" height="200%" filterUnits="objectBoundingBox" id="filter-4">
            <feOffset dx="0" dy="2" in="SourceAlpha" result="shadowOffsetOuter1"></feOffset>
            <feGaussianBlur stdDeviation="2" in="shadowOffsetOuter1" result="shadowBlurOuter1"></feGaussianBlur>
            <feColorMatrix values="0 0 0 0 0   0 0 0 0 0   0 0 0 0 0  0 0 0 0.35 0" in="shadowBlurOuter1" type="matrix" result="shadowMatrixOuter1"></feColorMatrix>
            <feMerge>
                <feMergeNode in="shadowMatrixOuter1"></feMergeNode>
                <feMergeNode in="SourceGraphic"></feMergeNode>
            </feMerge>
        </filter>
        <filter x="-50%" y="-50%" width="200%" height="200%" filterUnits="objectBoundingBox" id="filter-5">
            <feOffset dx="0" dy="2" in="SourceAlpha" result="shadowOffsetOuter1"></feOffset>
            <feGaussianBlur stdDeviation="2" in="shadowOffsetOuter1" result="shadowBlurOuter1"></feGaussianBlur>
            <feColorMatrix values="0 0 0 0 0   0 0 0 0 0   0 0 0 0 0  0 0 0 0.35 0" in="shadowBlurOuter1" type="matrix" result="shadowMatrixOuter1"></feColorMatrix>
            <feMerge>
                <feMergeNode in="shadowMatrixOuter1"></feMergeNode>
                <feMergeNode in="SourceGraphic"></feMergeNode>
            </feMerge>
        </filter>
        <filter x="-50%" y="-50%" width="200%" height="200%" filterUnits="objectBoundingBox" id="filter-6">
            <feOffset dx="0" dy="2" in="SourceAlpha" result="shadowOffsetOuter1"></feOffset>
            <feGaussianBlur stdDeviation="2" in="shadowOffsetOuter1" result="shadowBlurOuter1"></feGaussianBlur>
            <feColorMatrix values="0 0 0 0 0   0 0 0 0 0   0 0 0 0 0  0 0 0 0.35 0" in="shadowBlurOuter1" type="matrix" result="shadowMatrixOuter1"></feColorMatrix>
            <feMerge>
                <feMergeNode in="shadowMatrixOuter1"></feMergeNode>
                <feMergeNode in="SourceGraphic"></feMergeNode>
            </feMerge>
        </filter>
        <filter x="-50%" y="-50%" width="200%" height="200%" filterUnits="objectBoundingBox" id="filter-7">
            <feOffset dx="0" dy="2" in="SourceAlpha" result="shadowOffsetOuter1"></feOffset>
            <feGaussianBlur stdDeviation="2" in="shadowOffsetOuter1" result="shadowBlurOuter1"></feGaussianBlur>
            <feColorMatrix values="0 0 0 0 0   0 0 0 0 0   0 0 0 0 0  0 0 0 0.35 0" in="shadowBlurOuter1" type="matrix" result="shadowMatrixOuter1"></feColorMatrix>
            <feMerge>
                <feMergeNode in="shadowMatrixOuter1"></feMergeNode>
                <feMergeNode in="SourceGraphic"></feMergeNode>
            </feMerge>
        </filter>
        <filter x="-50%" y="-50%" width="200%" height="200%" filterUnits="objectBoundingBox" id="filter-8">
            <feOffset dx="0" dy="2" in="SourceAlpha" result="shadowOffsetOuter1"></feOffset>
            <feGaussianBlur stdDeviation="2" in="shadowOffsetOuter1" result="shadowBlurOuter1"></feGaussianBlur>
            <feColorMatrix values="0 0 0 0 0   0 0 0 0 0   0 0 0 0 0  0 0 0 0.35 0" in="shadowBlurOuter1" type="matrix" result="shadowMatrixOuter1"></feColorMatrix>
            <feMerge>
                <feMergeNode in="shadowMatrixOuter1"></feMergeNode>
                <feMergeNode in="SourceGraphic"></feMergeNode>
            </feMerge>
        </filter>
        <filter x="-50%" y="-50%" width="200%" height="200%" filterUnits="objectBoundingBox" id="filter-9">
            <feOffset dx="0" dy="2" in="SourceAlpha" result="shadowOffsetOuter1"></feOffset>
            <feGaussianBlur stdDeviation="2" in="shadowOffsetOuter1" result="shadowBlurOuter1"></feGaussianBlur>
            <feColorMatrix values="0 0 0 0 0   0 0 0 0 0   0 0 0 0 0  0 0 0 0.35 0" in="shadowBlurOuter1" type="matrix" result="shadowMatrixOuter1"></feColorMatrix>
            <feMerge>
                <feMergeNode in="shadowMatrixOuter1"></feMergeNode>
                <feMergeNode in="SourceGraphic"></feMergeNode>
            </feMerge>
        </filter>
    </defs>
    <g id="Page-1" stroke="none" stroke-width="1" fill="none" fill-rule="evenodd" sketch:type="MSPage">
        <g id="Artboard-1" sketch:type="MSArtboardGroup" transform="translate(2.000000, -6.000000)">
            <g id="icon_6433" sketch:type="MSLayerGroup" transform="translate(13.605280, 16.964680)" fill="#FFFFFF">
                <path d="M43.1569021,45.7383139 C26.1728262,40.3614483 10.0384649,45.3925122 9.86690862,45.4452161 L9.51895583,43.5032415 C10.2444401,43.2789814 25.9184496,38.3339645 43.4376306,43.8823864 L43.1569021,45.7383139 L43.1569021,45.7383139 Z" id="Shape" filter="url(#filter-1)" sketch:type="MSShapeGroup"></path>
                <ellipse id="Oval" filter="url(#filter-2)" sketch:type="MSShapeGroup" cx="36.8507283" cy="38.4641107" rx="1.35631676" ry="1.35631676"></ellipse>
                <ellipse id="Oval" filter="url(#filter-3)" sketch:type="MSShapeGroup" cx="16.414552" cy="38.4641107" rx="1.35631676" ry="1.35631676"></ellipse>
                <path d="M9.69965465,41.5967614 C8.98169951,41.8097279 8.22663657,41.4010043 8.01259451,40.6825114 C7.79909025,39.965094 8.20835157,39.2105689 8.92630672,38.995989 L9.69965465,41.5967614 L9.69965465,41.5967614 Z" id="Shape" filter="url(#filter-4)" sketch:type="MSShapeGroup"></path>
                <path d="M42.8584264,41.7860649 C43.5747681,42.0049471 44.33252,41.6010637 44.5514023,40.8841842 C44.7702845,40.1673046 44.3669389,39.4106283 43.6500593,39.1912083 L42.8584264,41.7860649 L42.8584264,41.7860649 Z" id="Shape" filter="url(#filter-5)" sketch:type="MSShapeGroup"></path>
                <ellipse id="Oval" filter="url(#filter-6)" sketch:type="MSShapeGroup" cx="26.0953838" cy="37.9268543" rx="1.35685455" ry="1.35685455"></ellipse>
                <path d="M49.6577574,11.4555524 C49.5975244,11.3963951 45.0574665,5.86195585 34.8270091,9.03655451 C30.7612856,6.90581423 26.4696885,6.85203482 26.1948757,6.85095923 L26.1932624,6.85095923 L26.1357184,6.85203482 C22.6615684,7.00691952 19.75264,7.66464172 17.4191514,8.81175657 C7.60494658,5.9393982 3.19019469,11.237208 3.13103734,11.2942142 C-2.42383807,16.6856002 1.37513955,24.2814043 1.5348644,24.5944005 L7.71949672,37.2234196 C12.3310813,36.222047 27.8217029,32.9802241 44.4067356,36.8916007 C44.432012,36.8975164 44.4567505,36.8953652 44.4820268,36.8953652 L44.8272906,37.0889711 L51.1608919,24.765419 C51.3233057,24.4540362 55.1744494,16.884584 49.6577574,11.4555524 L49.6577574,11.4555524 Z M25.0719616,9.35439083 L24.9907547,32.8791188 C21.7994844,32.9285958 18.8760356,33.150167 16.3290427,33.4405758 C15.2647482,31.2286287 10.7521177,21.0610931 14.400513,14.7081312 C16.1881406,11.5953789 19.7757652,9.79753318 25.0719616,9.35439083 L25.0719616,9.35439083 Z M4.86327218,12.7285111 C5.02192144,12.5617949 8.46541716,9.07043554 14.8398908,10.4783805 C13.8105529,11.3388511 12.955998,12.3439883 12.2902089,13.5034724 C8.3428001,20.3850859 12.2106154,30.2993204 13.7949568,33.7675547 C11.9535498,34.0316116 10.3815776,34.3166425 9.14303774,34.5672545 L3.69733454,23.488158 C3.5731041,23.2407727 0.639974996,17.2723336 4.86327218,12.7285111 L4.86327218,12.7285111 Z M27.014474,32.8732031 L27.0956809,9.33664362 C29.3205351,9.54261877 35.0609495,10.5004301 37.9187874,14.9318536 C40.6174383,19.115354 40.1812873,25.3709752 36.6420642,33.5190938 C33.2813888,33.0867073 30.0454816,32.8979416 27.014474,32.8732031 L27.014474,32.8732031 Z M49.0064887,23.644656 L43.2639231,34.6807291 C41.872112,34.3688085 40.4921323,34.1058272 39.1277486,33.8831804 C42.7691526,25.2203928 43.0541834,18.3968611 39.9511114,13.6008132 C39.2041154,12.4461692 38.3113771,11.493198 37.3465745,10.6994139 C44.1222426,8.96933024 47.7523528,12.7048482 47.9147666,12.8774801 C52.1068718,17.4503434 49.1328703,23.3983463 49.0064887,23.644656 L49.0064887,23.644656 Z" id="Shape" filter="url(#filter-7)" sketch:type="MSShapeGroup"></path>
                <path d="M24.8848093,4.97674674 L26.9085285,4.98427585 L26.9139065,3.50103969 L28.330994,3.50587983 L28.3374475,1.48216058 L26.9214356,1.47732043 L26.9252001,0.126381617 L24.9014809,0.119390293 L24.8966407,1.46979132 L23.4795533,1.46548896 L23.4725619,3.48920822 L24.8901872,3.49404836 L24.8848093,4.97674674 Z" id="Shape" filter="url(#filter-8)" sketch:type="MSShapeGroup"></path>
            </g>
            <text id="Folex" fill="white" filter="url(#filter-9)" sketch:type="MSTextLayer" font-family="Bebas Neue" font-size="50" font-weight="normal">
                <tspan x="13.6052805" y="108" fill="#FFFFFF">Folex</tspan>
            </text>
        </g>
    </g>
</svg>