<?xml version="1.0" encoding="UTF-8" standalone="no"?>
<svg width="46px" height="36px" viewBox="0 0 413 413" version="1.1" xmlns="http://www.w3.org/2000/svg" xmlns:xlink="http://www.w3.org/1999/xlink" xmlns:sketch="http://www.bohemiancoding.com/sketch/ns">
    <!-- Generator: Sketch 3.1.1 (8761) - http://www.bohemiancoding.com/sketch -->
    <title>Shape</title>
    <desc>Created with Sketch.</desc>
    <defs></defs>
    <g id="Page-1" stroke="none" stroke-width="1" fill="none" fill-rule="evenodd" sketch:type="MSPage">
        <path d="M0,206.59456 C0,149.635724 20.1505313,101.005776 60.4515939,60.704713 C100.752656,20.4036504 149.382605,0.253119096 206.34144,0.253119096 C263.300276,0.253119096 311.930224,20.4036504 352.231287,60.704713 C392.53235,101.005776 412.682881,149.635724 412.682881,206.59456 C412.682881,263.553395 392.53235,312.183344 352.231287,352.484406 C311.930224,392.785469 263.300276,412.936 206.34144,412.936 C149.382605,412.936 100.752656,392.785469 60.4515939,352.484406 C20.1505313,312.183344 3.51897109e-14,263.553395 1.17299036e-14,206.59456 L0,206.59456 Z M22.568595,206.59456 C22.568595,257.105225 40.5697363,300.361699 76.5720189,336.363981 C112.574301,372.366264 155.830775,390.367405 206.34144,390.367405 C256.852106,390.367405 300.108579,372.366264 336.110862,336.363981 C372.113145,300.361699 390.114286,257.105225 390.114286,206.59456 C390.114286,156.083894 372.113145,112.827421 336.110862,76.825138 C300.108579,40.8228554 256.852106,22.8217141 206.34144,22.8217141 C155.830775,22.8217141 112.574301,40.8228554 76.5720189,76.825138 C40.5697363,112.827421 22.568595,156.083894 22.568595,206.59456 L22.568595,206.59456 Z M80.6021252,250.925728 C79.5274302,249.851033 79.5274302,248.776338 80.6021252,247.701643 C82.7515152,245.552253 85.4382527,244.746232 88.6623377,245.28358 C91.8864227,245.820927 93.767139,246.358275 94.3044865,246.895622 C98.065919,248.507665 102.230293,252.134829 106.79761,257.777115 C111.364926,263.419402 114.99209,267.31524 117.679103,269.46463 C130.575443,280.21158 143.740457,281.017601 157.174144,271.882694 C158.248839,268.121261 159.99515,264.897176 162.413076,262.210439 C164.831002,259.523701 167.114798,257.642985 169.264463,256.56829 C171.414128,255.493595 175.175561,253.881552 180.54876,251.732162 C162.816293,250.12012 148.442178,247.030303 137.426417,242.462712 C126.410656,237.89512 117.67869,232.118703 111.23052,225.133461 C102.63296,215.461206 97.3937531,202.83354 95.5128993,187.250462 C93.6320454,171.667385 94.8411461,157.427676 99.1402013,144.531336 C102.364286,136.471123 106.93174,129.216932 112.842563,122.768762 C108.543783,109.335075 109.349804,94.0206708 115.260626,76.8255507 C132.455746,77.9002457 148.038824,83.8110682 162.009859,94.5580183 C188.877234,87.5725007 216.819304,87.303827 245.836069,93.751997 C249.597502,91.0652595 255.373918,87.7067688 263.16532,83.676525 C270.956721,79.6462812 280.763382,77.3624855 292.585302,76.825138 C294.734692,82.7359605 296.212466,89.721478 297.018625,97.7816906 C297.824784,105.841903 297.421842,113.364768 295.809799,120.350286 C308.168792,133.246626 314.616962,150.441746 315.154309,171.935646 C315.154309,189.130766 312.198898,203.370475 306.288076,214.654772 C300.377253,225.93907 289.898977,235.342651 274.853247,242.865516 C264.643644,247.701643 251.209957,250.657055 234.552184,251.73175 C242.075049,255.493182 247.58293,259.38902 251.075826,263.419264 C254.568723,267.449508 256.852518,273.763272 257.927213,282.360557 L257.927213,307.750433 C257.927213,307.750433 258.195887,315.945051 258.733235,332.334288 C260.345277,335.021025 262.225993,337.304821 264.375383,339.185675 C266.524773,341.066528 268.40549,342.409897 270.017532,343.215781 C271.629575,344.021664 272.166922,345.230765 271.629575,346.843083 C271.092227,348.4554 268.942837,349.261422 265.181405,349.261147 C256.046497,349.261147 248.792306,346.037062 243.418831,339.588892 C241.806788,336.902154 241.000767,333.678069 241.000767,329.916636 L241.000767,291.227616 C241.000767,286.928836 239.926072,283.839019 237.776682,281.958166 C235.627292,280.077312 233.477902,278.868211 231.328512,278.330864 L231.328512,329.110203 C231.328512,338.24511 232.403207,344.155933 234.552597,346.84267 C236.701987,349.529408 238.045356,352.216145 238.582703,354.902883 C239.120051,355.44023 238.717109,355.843172 237.373878,356.111708 C236.030647,356.380244 233.746851,355.977302 230.522491,354.902883 C223.536973,353.29084 218.700846,349.663676 216.014108,344.021389 C213.327371,338.379103 211.984002,332.333875 211.984002,325.885705 L211.984002,275.912387 L201.505726,275.912387 L201.505726,325.885705 C201.505726,332.333875 200.162357,338.513371 197.475619,344.424194 C193.714187,351.947059 186.728669,355.977165 176.519067,356.514512 C174.907024,355.977165 174.101003,355.439817 174.101003,354.90247 C174.638351,354.365122 176.250393,351.678385 178.937131,346.842257 C179.474478,345.767562 180.146231,343.618172 180.95239,340.394087 C181.758549,337.170002 182.161491,333.40857 182.161216,329.10979 L182.161216,278.330451 C180.011826,278.867798 177.996704,280.076899 176.11585,281.957753 C174.234996,283.838607 173.294569,286.928424 173.294569,291.227204 L173.294569,329.916224 C173.294569,333.677656 172.488548,336.901741 170.876505,339.588479 C166.040378,346.036649 158.786187,349.260734 149.113932,349.260734 C145.352499,349.260734 143.203109,348.454713 142.665762,346.84267 C142.128414,345.767975 142.26282,344.827548 143.068979,344.021389 C143.875137,343.215231 145.084238,342.274804 146.696281,341.200109 C148.308323,340.125414 149.383018,339.319392 149.920366,338.782045 C152.069756,337.170002 153.681798,335.020612 154.756493,332.333875 C156.368536,330.184485 156.771477,324.542336 155.965319,315.407429 C155.15916,306.272521 155.024754,300.361699 155.562102,297.674961 C141.591067,302.511089 127.351358,300.093025 112.842975,290.42077 C108.544195,286.12199 104.245415,279.942493 99.9466352,271.882281 C96.7225502,265.971458 90.2743802,258.985941 80.6021252,250.925728 L80.6021252,250.925728 Z" id="Shape" fill="#FFFFFF" sketch:type="MSShapeGroup"></path>
    </g>
</svg>